<svg width="44" height="42" viewBox="0 0 44 42" fill="none" xmlns="http://www.w3.org/2000/svg">
<path d="M15.6267 0.364529C12.4036 1.54131 9.77642 4.79145 9.2889 8.15367C9.18056 8.88215 8.96388 9.58261 8.77429 9.72271C8.61178 9.8628 7.79925 10.115 6.95963 10.3111C1.70523 11.4599 -1.32824 17.792 1.00103 22.8073C1.81357 24.6285 3.84491 26.786 5.2533 27.4024C5.98459 27.7106 6.12001 27.9347 6.25543 28.9994C6.52628 31.5771 8.53053 33.4544 11.3473 33.7906C12.7828 33.9587 13.2974 34.463 13.0536 35.4437C12.7286 36.8166 12.2682 42 12.4849 42C12.5932 42 13.8933 40.8232 15.3287 39.3943C18.8497 35.864 20.2581 34.5751 21.0707 34.1548C21.5853 33.8466 23.7791 33.7626 30.5503 33.7626L39.3798 33.7345L40.707 33.0061C41.6549 32.5017 42.3049 31.9133 42.8737 30.9327L43.6863 29.5878L43.7675 22.9754C43.8758 15.4385 43.6863 13.9255 42.4133 12.4125C40.8153 10.5352 40.0028 10.3111 34.5046 10.171C31.8232 10.115 29.3314 10.0029 29.0064 9.91883C28.5731 9.80676 28.3564 9.49856 28.2481 8.71404C27.6251 4.79145 25.1875 1.56932 21.9103 0.392548C20.4477 -0.111786 16.9809 -0.139801 15.6267 0.364529ZM40.4361 13.4492C41.4653 14.5139 41.6549 15.7467 41.6278 21.9948C41.6278 28.4951 41.4653 29.5318 40.3007 30.5685L39.4881 31.353H30.5503C23.2374 31.353 21.4228 31.437 20.6373 31.7733C20.0956 31.9974 18.6872 33.0341 17.5226 34.0427L15.3558 35.92L15.41 34.0708C15.4913 31.6892 15.2204 31.353 13.2432 31.353C10.9681 31.353 9.74933 30.9047 9.15347 29.868C8.85555 29.3637 8.61178 28.8313 8.61178 28.6352C8.61178 28.383 11.3473 28.2709 19.6623 28.2149C30.4961 28.1308 30.7128 28.1308 32.0399 27.4864C35.9672 25.6092 38.2152 20.5659 36.9151 16.5312C36.6714 15.7187 36.0213 14.5139 35.5067 13.8134L34.5858 12.5246L37.1589 12.6366C39.5152 12.7207 39.8132 12.7767 40.4361 13.4492ZM27.9772 14.9341C28.4647 15.1583 29.0064 15.5786 29.1689 15.8868C29.6835 16.8954 29.521 18.3804 28.8168 19.221C28.1668 20.0055 28.1126 20.0055 24.2666 20.1456L20.3936 20.2857L18.5518 21.4905L16.7371 22.6672V21.4064V20.1456H13.3516C9.641 20.1456 8.77429 19.8934 8.17843 18.7166C7.44715 17.2317 7.93467 15.5505 9.2889 14.9341C10.5077 14.3738 26.6772 14.3738 27.9772 14.9341Z" fill="#6338F6"/>
<path d="M14.0284 16.7534C13.595 17.622 14.1367 18.5186 15.0305 18.4065C15.9514 18.2944 16.4389 17.5099 16.0326 16.8375C15.5993 16.109 14.4075 16.0529 14.0284 16.7534Z" fill="#6338F6"/>
<path d="M17.604 16.5596C16.8727 17.3161 17.4415 18.4648 18.552 18.4648C19.3374 18.4648 19.852 17.5402 19.4458 16.7837C19.1207 16.1673 18.1186 16.0272 17.604 16.5596Z" fill="#6338F6"/>
<path d="M21.1251 16.5596C20.3938 17.3161 20.9626 18.4648 22.0731 18.4648C22.8585 18.4648 23.3731 17.5402 22.9669 16.7837C22.6419 16.1673 21.6397 16.0272 21.1251 16.5596Z" fill="#6338F6"/>
</svg>
