<svg width="90" height="32" viewBox="0 0 90 32" fill="none" xmlns="http://www.w3.org/2000/svg">
<g clip-path="url(#clip0_842_135138)">
<rect width="32" height="32" rx="16" fill="white"/>
<path fill-rule="evenodd" clip-rule="evenodd" d="M16 0C7.16 0 0 7.16 0 16C0 23.08 4.58 29.06 10.94 31.18C11.74 31.32 12.04 30.84 12.04 30.42C12.04 30.04 12.02 28.78 12.02 27.44C8 28.18 6.96 26.46 6.64 25.56C6.46 25.1 5.68 23.68 5 23.3C4.44 23 3.64 22.26 4.98 22.24C6.24 22.22 7.14 23.4 7.44 23.88C8.88 26.3 11.18 25.62 12.1 25.2C12.24 24.16 12.66 23.46 13.12 23.06C9.56 22.66 5.84 21.28 5.84 15.16C5.84 13.42 6.46 11.98 7.48 10.86C7.32 10.46 6.76 8.82 7.64 6.62C7.64 6.62 8.98 6.2 12.04 8.26C13.32 7.9 14.68 7.72 16.04 7.72C17.4 7.72 18.76 7.9 20.04 8.26C23.1 6.18 24.44 6.62 24.44 6.62C25.32 8.82 24.76 10.46 24.6 10.86C25.62 11.98 26.24 13.4 26.24 15.16C26.24 21.3 22.5 22.66 18.94 23.06C19.52 23.56 20.02 24.52 20.02 26.02C20.02 28.16 20 29.88 20 30.42C20 30.84 20.3 31.34 21.1 31.18C27.42 29.06 32 23.06 32 16C32 7.16 24.84 0 16 0Z" fill="#141B27"/>
</g>
<path d="M46.208 21.192C44.512 21.192 43.1947 20.7387 42.256 19.832C41.3173 18.9147 40.848 17.4747 40.848 15.512C40.848 14.2213 41.0667 13.16 41.504 12.328C41.952 11.4853 42.592 10.8613 43.424 10.456C44.2667 10.04 45.2747 9.832 46.448 9.832C47.152 9.832 47.8133 9.912 48.432 10.072C49.0507 10.232 49.5947 10.4773 50.064 10.808C50.544 11.128 50.9173 11.5333 51.184 12.024C51.4507 12.5147 51.584 13.096 51.584 13.768H49.44C49.44 13.416 49.36 13.1067 49.2 12.84C49.0507 12.5627 48.8373 12.3333 48.56 12.152C48.2933 11.96 47.984 11.8213 47.632 11.736C47.28 11.64 46.9067 11.592 46.512 11.592C45.9253 11.592 45.408 11.672 44.96 11.832C44.5227 11.9813 44.1547 12.216 43.856 12.536C43.568 12.8453 43.3493 13.2347 43.2 13.704C43.0613 14.1733 42.992 14.7227 42.992 15.352V15.688C42.992 16.552 43.1147 17.2613 43.36 17.816C43.6053 18.3707 43.9733 18.7813 44.464 19.048C44.9653 19.304 45.584 19.432 46.32 19.432C46.9493 19.432 47.4987 19.336 47.968 19.144C48.448 18.952 48.8213 18.6747 49.088 18.312C49.3653 17.9387 49.504 17.4853 49.504 16.952V16.84H46V15.112H51.584V21H50.096L49.92 19.784C49.6 20.104 49.2587 20.3707 48.896 20.584C48.5333 20.7867 48.1333 20.936 47.696 21.032C47.2587 21.1387 46.7627 21.192 46.208 21.192ZM53.7431 11.288V9.432H55.6951V11.288H53.7431ZM53.7431 21V12.584H55.6951V21H53.7431ZM59.9984 21.192C59.4757 21.192 59.065 21.0907 58.7664 20.888C58.4677 20.6747 58.2544 20.408 58.1264 20.088C58.009 19.7573 57.9504 19.4213 57.9504 19.08V14.184H56.9424V12.584H57.9984L58.3504 10.232H59.9024V12.584H61.3584V14.184H59.9024V18.888C59.9024 19.112 59.961 19.288 60.0784 19.416C60.1957 19.5333 60.3717 19.592 60.6064 19.592H61.3584V20.936C61.2517 20.9787 61.1184 21.016 60.9584 21.048C60.809 21.0907 60.649 21.1227 60.4784 21.144C60.3077 21.176 60.1477 21.192 59.9984 21.192ZM62.8056 21V9.432H64.7576V13.544H64.8696C65.051 13.32 65.2643 13.1227 65.5096 12.952C65.755 12.7813 66.0323 12.648 66.3416 12.552C66.6616 12.4453 67.0136 12.392 67.3976 12.392C67.931 12.392 68.4003 12.488 68.8056 12.68C69.2216 12.872 69.547 13.1813 69.7816 13.608C70.0163 14.0347 70.1336 14.6053 70.1336 15.32V21H68.1656V15.672C68.1656 15.3733 68.1283 15.128 68.0536 14.936C67.9896 14.7333 67.8883 14.5733 67.7496 14.456C67.6216 14.328 67.4616 14.2373 67.2696 14.184C67.0776 14.1307 66.8643 14.104 66.6296 14.104C66.2776 14.104 65.9576 14.1893 65.6696 14.36C65.3923 14.5307 65.1683 14.7653 64.9976 15.064C64.8376 15.3627 64.7576 15.7093 64.7576 16.104V21H62.8056ZM74.8214 21.192C74.0107 21.192 73.3494 20.9733 72.8374 20.536C72.336 20.088 72.0854 19.3307 72.0854 18.264V12.584H74.0374V17.912C74.0374 18.2107 74.0694 18.4613 74.1334 18.664C74.208 18.856 74.3094 19.016 74.4374 19.144C74.576 19.2613 74.7414 19.3467 74.9334 19.4C75.1254 19.4533 75.3387 19.48 75.5734 19.48C75.9254 19.48 76.24 19.3947 76.5174 19.224C76.8054 19.0533 77.0294 18.8187 77.1894 18.52C77.36 18.2107 77.4454 17.864 77.4454 17.48V12.584H79.3974V21H77.7814L77.6214 19.88H77.5094C77.3174 20.136 77.088 20.3653 76.8214 20.568C76.5654 20.76 76.2667 20.9093 75.9254 21.016C75.5947 21.1333 75.2267 21.192 74.8214 21.192ZM85.9415 21.192C85.3975 21.192 84.9015 21.0853 84.4535 20.872C84.0055 20.648 83.6428 20.3173 83.3655 19.88H83.2535L83.0935 21H81.4775V9.432H83.4295V13.56H83.5255C83.6962 13.304 83.9042 13.0907 84.1495 12.92C84.3948 12.7387 84.6775 12.6053 84.9975 12.52C85.3175 12.4347 85.6695 12.392 86.0535 12.392C86.6828 12.392 87.2375 12.5467 87.7175 12.856C88.2082 13.1653 88.5922 13.6453 88.8695 14.296C89.1468 14.936 89.2855 15.7627 89.2855 16.776C89.2855 17.8 89.1468 18.6373 88.8695 19.288C88.6028 19.9387 88.2188 20.4187 87.7175 20.728C87.2268 21.0373 86.6348 21.192 85.9415 21.192ZM85.3335 19.512C85.8135 19.512 86.1922 19.4213 86.4695 19.24C86.7575 19.048 86.9602 18.76 87.0775 18.376C87.2055 17.992 87.2695 17.5067 87.2695 16.92V16.696C87.2695 16.0987 87.2055 15.608 87.0775 15.224C86.9602 14.8293 86.7575 14.5413 86.4695 14.36C86.1922 14.168 85.8135 14.072 85.3335 14.072C85.0028 14.072 84.7148 14.1307 84.4695 14.248C84.2348 14.3653 84.0375 14.536 83.8775 14.76C83.7282 14.984 83.6162 15.2613 83.5415 15.592C83.4668 15.9227 83.4295 16.296 83.4295 16.712V16.92C83.4295 17.4747 83.4935 17.944 83.6215 18.328C83.7602 18.712 83.9682 19.0053 84.2455 19.208C84.5335 19.4107 84.8962 19.512 85.3335 19.512Z" fill="#0D1119"/>
<defs>
<clipPath id="clip0_842_135138">
<rect width="32" height="32" rx="16" fill="white"/>
</clipPath>
</defs>
</svg>
