<svg width="21" height="20" viewBox="0 0 21 20" fill="none" xmlns="http://www.w3.org/2000/svg">
<g clip-path="url(#clip0_688_135025)">
<path d="M10.25 0C15.7731 0 20.25 4.4775 20.25 10C20.25 15.5232 15.7731 20 10.25 20C4.72681 20 0.25 15.5231 0.25 10C0.25 4.4775 4.72688 0 10.25 0Z" fill="#3B5998"/>
<path d="M11.4674 6.88422H12.7562V4.98047H11.2412V4.98733C9.40556 5.05235 9.02934 6.08421 8.99618 7.16797H8.9924V8.11861H7.74243V9.98296H8.9924V14.9804H10.8762V9.98296H12.4193L12.7174 8.11861H10.8768V7.54426C10.8768 7.17799 11.1205 6.88422 11.4674 6.88422Z" fill="white"/>
</g>
<defs>
<clipPath id="clip0_688_135025">
<rect width="20" height="20" fill="white" transform="translate(0.25)"/>
</clipPath>
</defs>
</svg>
