<svg width="16" height="17" viewBox="0 0 16 17" fill="none" xmlns="http://www.w3.org/2000/svg">
<g clip-path="url(#clip0_219_53879)">
<rect y="0.737305" width="16" height="16" rx="8" fill="white"/>
<path fill-rule="evenodd" clip-rule="evenodd" d="M8 0.737305C3.58 0.737305 0 4.3173 0 8.7373C0 12.2773 2.29 15.2673 5.47 16.3273C5.87 16.3973 6.02 16.1573 6.02 15.9473C6.02 15.7573 6.01 15.1273 6.01 14.4573C4 14.8273 3.48 13.9673 3.32 13.5173C3.23 13.2873 2.84 12.5773 2.5 12.3873C2.22 12.2373 1.82 11.8673 2.49 11.8573C3.12 11.8473 3.57 12.4373 3.72 12.6773C4.44 13.8873 5.59 13.5473 6.05 13.3373C6.12 12.8173 6.33 12.4673 6.56 12.2673C4.78 12.0673 2.92 11.3773 2.92 8.3173C2.92 7.4473 3.23 6.7273 3.74 6.1673C3.66 5.9673 3.38 5.1473 3.82 4.0473C3.82 4.0473 4.49 3.8373 6.02 4.8673C6.66 4.6873 7.34 4.5973 8.02 4.5973C8.7 4.5973 9.38 4.6873 10.02 4.8673C11.55 3.8273 12.22 4.0473 12.22 4.0473C12.66 5.1473 12.38 5.9673 12.3 6.1673C12.81 6.7273 13.12 7.4373 13.12 8.3173C13.12 11.3873 11.25 12.0673 9.47 12.2673C9.76 12.5173 10.01 12.9973 10.01 13.7473C10.01 14.8173 10 15.6773 10 15.9473C10 16.1573 10.15 16.4073 10.55 16.3273C13.71 15.2673 16 12.2673 16 8.7373C16 4.3173 12.42 0.737305 8 0.737305Z" fill="#141B27"/>
</g>
<defs>
<clipPath id="clip0_219_53879">
<rect y="0.737305" width="16" height="16" rx="8" fill="white"/>
</clipPath>
</defs>
</svg>
