<svg width="21" height="20" viewBox="0 0 21 20" fill="none" xmlns="http://www.w3.org/2000/svg">
<g clip-path="url(#clip0_688_135015)">
<path d="M19.995 8.26113L11.8372 8.26074C11.4769 8.26074 11.1849 8.5527 11.1849 8.91293V11.519C11.1849 11.8791 11.4769 12.1712 11.8371 12.1712H16.4311C15.9281 13.4767 14.9892 14.57 13.7913 15.2647L15.7501 18.6557C18.8924 16.8384 20.7501 13.6497 20.7501 10.0803C20.7501 9.57203 20.7127 9.20871 20.6377 8.79961C20.5808 8.48879 20.311 8.26113 19.995 8.26113Z" fill="#167EE6"/>
<path d="M10.7502 16.0871C8.50198 16.0871 6.53932 14.8587 5.48522 13.041L2.09436 14.9955C3.81995 17.9862 7.05252 20.0001 10.7502 20.0001C12.5641 20.0001 14.2757 19.5117 15.7502 18.6606V18.6559L13.7913 15.2649C12.8953 15.7846 11.8584 16.0871 10.7502 16.0871Z" fill="#12B347"/>
<path d="M15.75 18.6603V18.6557L13.7911 15.2646C12.8951 15.7843 11.8583 16.0868 10.75 16.0868V19.9998C12.5639 19.9998 14.2756 19.5114 15.75 18.6603Z" fill="#0F993E"/>
<path d="M4.66305 10.0002C4.66305 8.89207 4.96547 7.85531 5.48504 6.95934L2.09418 5.00488C1.23836 6.47469 0.75 8.18164 0.75 10.0002C0.75 11.8188 1.23836 13.5258 2.09418 14.9956L5.48504 13.0411C4.96547 12.1452 4.66305 11.1084 4.66305 10.0002Z" fill="#FFD500"/>
<path d="M10.7502 3.91305C12.2162 3.91305 13.5629 4.43398 14.6147 5.30051C14.8742 5.51426 15.2514 5.49883 15.489 5.26113L17.3355 3.41465C17.6052 3.14496 17.586 2.70352 17.2979 2.45359C15.5356 0.924727 13.2426 0 10.7502 0C7.05252 0 3.81995 2.01395 2.09436 5.00465L5.48522 6.9591C6.53932 5.14141 8.50198 3.91305 10.7502 3.91305Z" fill="#FF4B26"/>
<path d="M14.6145 5.30051C14.874 5.51426 15.2512 5.49883 15.4889 5.26113L17.3354 3.41465C17.605 3.14496 17.5858 2.70352 17.2977 2.45359C15.5354 0.924688 13.2425 0 10.75 0V3.91305C12.216 3.91305 13.5627 4.43398 14.6145 5.30051Z" fill="#D93F21"/>
</g>
<defs>
<clipPath id="clip0_688_135015">
<rect width="20" height="20" fill="white" transform="translate(0.75)"/>
</clipPath>
</defs>
</svg>
