<svg width="18" height="17" viewBox="0 0 18 17" fill="none" xmlns="http://www.w3.org/2000/svg">
<path fill-rule="evenodd" clip-rule="evenodd" d="M13.5455 9.20782C11.4664 9.20782 9.78085 10.8933 9.78085 12.9726C9.78085 15.0518 11.4664 16.7373 13.5455 16.7373C15.6247 16.7373 17.3102 15.0518 17.3102 12.9726C17.3102 10.8933 15.6247 9.20782 13.5455 9.20782ZM3.76466 9.20818C1.68551 9.20818 0 10.8933 0 12.9726C0 15.0518 1.68551 16.7373 3.76466 16.7373C5.84389 16.7373 7.52949 15.0518 7.52949 12.9726C7.52949 10.8933 5.84389 9.20818 3.76466 9.20818ZM12.4197 4.50188C12.4197 6.5812 10.7343 8.26687 8.6551 8.26687C6.57588 8.26687 4.89045 6.5812 4.89045 4.50188C4.89045 2.42298 6.57588 0.737305 8.6551 0.737305C10.7343 0.737305 12.4197 2.42298 12.4197 4.50188Z" fill="#FD3A55"/>
</svg>
